<svg width="390" height="260" viewBox="0 0 390 260" fill="none"
  xmlns="http://www.w3.org/2000/svg">
  <rect width="390" height="260" fill="#373C34"/>
  <g clip-path="url(#clip0_109_1110)">
    <rect x="19" y="213" width="50" height="50" stroke="#7ABB6C" stroke-width="6"/>
    <path d="M79.9209 225.668L84.5401 216L89.5442 225.668C89.5442 225.668 94.5485 229.149 98.7827 234.95C103.017 240.751 102.632 257.38 84.5401 256.993C66.4482 256.606 67.603 240.364 71.0674 234.95C74.5319 229.535 79.9209 225.668 79.9209 225.668Z" fill="#373C34" stroke="#7ABB6C" stroke-width="4" stroke-linejoin="bevel"/>
    <path d="M241.992 216.498L247.911 204L254.322 216.498C254.322 216.498 260.734 220.997 266.159 228.496C271.584 235.995 271.091 257.491 247.911 256.991C224.731 256.491 226.21 235.495 230.649 228.496C235.088 221.497 241.992 216.498 241.992 216.498Z" fill="#373C34" stroke="#7ABB6C" stroke-width="5" stroke-linejoin="bevel"/>
    <path d="M263.262 224.14L268.026 214L273.186 224.14C273.186 224.14 278.347 227.79 282.713 233.874C287.08 239.958 286.683 257.398 268.026 256.993C249.368 256.587 250.559 239.552 254.132 233.874C257.705 228.196 263.262 224.14 263.262 224.14Z" fill="#373C34" stroke="#7ABB6C" stroke-width="5" stroke-linejoin="bevel"/>
    <path d="M96.8494 234.838L100.169 228L103.766 234.838C103.766 234.838 107.363 237.3 110.406 241.403C113.45 245.507 113.173 257.269 100.169 256.995C87.1659 256.722 87.9959 245.233 90.486 241.403C92.976 237.574 96.8494 234.838 96.8494 234.838Z" fill="#373C34" stroke="#7ABB6C" stroke-width="4" stroke-linejoin="bevel"/>
    <path d="M0.804468 193.61L-3 192.551V196.5V260V263H0H48.5H51.5V260V210V207.721L49.3045 207.11L0.804468 193.61Z" stroke="#7ABB6C" stroke-width="6"/>
    <path d="M154 252C153.333 244.333 152 228.8 152 228H167.5L166 252H154Z" stroke="#7ABB6C" stroke-width="4"/>
    <rect x="152" y="250" width="2" height="8" rx="1" stroke="#7ABB6C" stroke-width="4"/>
    <rect x="166" y="250" width="2" height="8" rx="1" stroke="#7ABB6C" stroke-width="4"/>
    <path d="M175 252C174.333 244.333 173 228.8 173 228H188.5L187 252H175Z" stroke="#7ABB6C" stroke-width="4"/>
    <rect x="173" y="250" width="2" height="8" rx="1" stroke="#7ABB6C" stroke-width="4"/>
    <rect x="187" y="250" width="2" height="8" rx="1" stroke="#7ABB6C" stroke-width="4"/>
    <path d="M196 252C195.333 244.333 194 228.8 194 228H209.5L208 252H196Z" stroke="#7ABB6C" stroke-width="4"/>
    <rect x="194" y="250" width="2" height="8" rx="1" stroke="#7ABB6C" stroke-width="4"/>
    <rect x="208" y="250" width="2" height="8" rx="1" stroke="#7ABB6C" stroke-width="4"/>
    <path d="M315.5 244L300 254.5" stroke="#7ABB6C" stroke-width="5"/>
    <mask id="mask0_109_1110" style="mask-type:alpha" maskUnits="userSpaceOnUse" x="289" y="213" width="38" height="38">
      <rect width="30" height="30" transform="matrix(-0.965926 0.258819 0.258819 0.965926 318.607 213.629)" fill="#D9D9D9"/>
    </mask>
    <g mask="url(#mask0_109_1110)">
      <path d="M304.086 224.637C304.75 224.459 305.255 224.07 305.601 223.47C305.947 222.871 306.032 222.239 305.854 221.575C305.676 220.911 305.287 220.406 304.687 220.059C304.088 219.713 303.456 219.629 302.792 219.807C302.128 219.985 301.622 220.374 301.276 220.973C300.93 221.573 300.846 222.205 301.024 222.869C301.202 223.533 301.591 224.038 302.19 224.384C302.79 224.731 303.422 224.815 304.086 224.637ZM317.596 243.664L309.653 227.545L312.053 227.808L313.153 231.913L315.568 231.266L314.047 225.591L307.254 224.629C306.606 224.544 306.006 224.678 305.453 225.03C304.901 225.384 304.526 225.878 304.33 226.513L303.64 228.768C303.343 229.754 302.82 230.638 302.071 231.421C301.32 232.204 300.372 232.75 299.225 233.057L299.872 235.472C301.2 235.116 302.368 234.506 303.376 233.643C304.386 232.779 305.161 231.79 305.704 230.674L307.399 234.102L305.51 237.196L307.937 246.252L310.351 245.605L308.41 238.36L310.299 235.266L315.06 244.343L317.596 243.664Z" fill="#7ABB6C"/>
    </g>
    <mask id="mask1_109_1110" style="mask-type:alpha" maskUnits="userSpaceOnUse" x="309" y="185" width="90" height="90">
      <rect x="309" y="185" width="90" height="90" fill="#D9D9D9"/>
    </mask>
    <g mask="url(#mask1_109_1110)">
      <path d="M330 259.906C326.937 259.906 324.328 258.828 322.172 256.672C320.016 254.516 318.938 251.906 318.938 248.844H312.75V205.625C312.75 204.125 313.313 202.812 314.438 201.687C315.563 200.562 316.875 200 318.375 200H372.656V215.656H382.5L395.25 232.625V248.844H388.594C388.594 251.906 387.516 254.516 385.359 256.672C383.203 258.828 380.594 259.906 377.531 259.906C374.469 259.906 371.859 258.828 369.703 256.672C367.547 254.516 366.469 251.906 366.469 248.844H341.063C341.063 251.906 339.984 254.516 337.828 256.672C335.672 258.828 333.062 259.906 330 259.906ZM330 254.281C331.5 254.281 332.781 253.75 333.844 252.687C334.906 251.625 335.438 250.344 335.438 248.844C335.438 247.344 334.906 246.062 333.844 245C332.781 243.938 331.5 243.406 330 243.406C328.5 243.406 327.219 243.938 326.156 245C325.094 246.062 324.563 247.344 324.563 248.844C324.563 250.344 325.094 251.625 326.156 252.687C327.219 253.75 328.5 254.281 330 254.281ZM318.375 243.219H320.437C321.5 241.531 322.844 240.187 324.469 239.187C326.094 238.187 327.906 237.688 329.906 237.688C331.906 237.688 333.734 238.203 335.391 239.234C337.047 240.266 338.406 241.594 339.469 243.219H367.031V205.625H318.375V243.219ZM377.531 254.281C379.031 254.281 380.312 253.75 381.375 252.687C382.437 251.625 382.969 250.344 382.969 248.844C382.969 247.344 382.437 246.062 381.375 245C380.312 243.938 379.031 243.406 377.531 243.406C376.031 243.406 374.75 243.938 373.688 245C372.625 246.062 372.094 247.344 372.094 248.844C372.094 250.344 372.625 251.625 373.688 252.687C374.75 253.75 376.031 254.281 377.531 254.281ZM372.656 235.156H390.094L379.688 221.281H372.656V235.156Z" fill="#7ABB6C"/>
    </g>
    <mask id="mask2_109_1110" style="mask-type:alpha" maskUnits="userSpaceOnUse" x="115" y="231" width="30" height="30">
      <rect x="115" y="231" width="30" height="30" fill="#D9D9D9"/>
    </mask>
    <g mask="url(#mask2_109_1110)">
      <path d="M131.875 237.875C131.187 237.875 130.599 237.63 130.11 237.14C129.62 236.651 129.375 236.063 129.375 235.375C129.375 234.687 129.62 234.099 130.11 233.609C130.599 233.12 131.187 232.875 131.875 232.875C132.563 232.875 133.151 233.12 133.641 233.609C134.13 234.099 134.375 234.687 134.375 235.375C134.375 236.063 134.13 236.651 133.641 237.14C133.151 237.63 132.563 237.875 131.875 237.875ZM123.75 259.75L127.25 242.125L125 243V247.25H122.5V241.375L128.813 238.688C129.417 238.438 130.031 238.411 130.656 238.609C131.281 238.807 131.771 239.188 132.125 239.75L133.375 241.75C133.917 242.625 134.651 243.344 135.577 243.906C136.505 244.469 137.563 244.75 138.75 244.75V247.25C137.375 247.25 136.089 246.963 134.891 246.39C133.693 245.818 132.687 245.062 131.875 244.125L131.125 247.875L133.75 250.375V259.75H131.25V252.25L128.625 249.75L126.375 259.75H123.75Z" fill="#7ABB6C"/>
    </g>
  </g>
  <defs>
    <clipPath id="clip0_109_1110">
      <rect width="390" height="81" fill="white" transform="translate(0 179)"/>
    </clipPath>
  </defs>
</svg>
